<?xml version="1.0" encoding="utf-8"?>
<!-- Generator: Adobe Illustrator 23.0.0, SVG Export Plug-In . SVG Version: 6.00 Build 0)  -->
<svg version="1.1" xmlns="http://www.w3.org/2000/svg" xmlns:xlink="http://www.w3.org/1999/xlink" x="0px" y="0px"
	 viewBox="0 0 283.46 53.33" style="enable-background:new 0 0 283.46 53.33;" xml:space="preserve">
<style type="text/css">
	.st0{display:none;fill:#262626;}
	.st1{fill:#FFFFFF;}
	.st2{display:none;}
	.st3{display:inline;}
	.st4{display:none;fill:#FFFFFF;}
</style>
<g id="Layer_1">
	<rect y="-97.56" class="st0" width="283.46" height="283.46"/>
	<polygon class="st1" points="131.78,44.19 126.04,46.25 119.9,47.01 114,46.4 108.03,44.44 117.14,27.56 118.53,29.87 
		119.99,30.99 121.36,29.85 122.83,27.56 	"/>
	<g>
		<path class="st1" d="M4.58,4.45c0-0.75,0.38-1.13,1.13-1.13c0.75,0,1.13,0.38,1.13,1.13v28.49c0,1.79,0.34,3.48,1.03,5.05
			c0.68,1.58,1.6,2.97,2.76,4.17c1.15,1.2,2.53,2.16,4.14,2.86c1.6,0.71,3.32,1.06,5.16,1.06c1.79,0,3.49-0.34,5.09-1.03
			c1.6-0.68,3-1.63,4.21-2.83s2.16-2.59,2.86-4.17c0.71-1.58,1.06-3.26,1.06-5.05V4.31c0-0.75,0.38-1.13,1.13-1.13
			c0.75,0,1.13,0.38,1.13,1.13v28.7c0,2.12-0.41,4.11-1.24,5.97c-0.83,1.86-1.94,3.49-3.36,4.88c-1.41,1.39-3.05,2.49-4.91,3.29
			c-1.86,0.8-3.85,1.2-5.97,1.2c-2.12,0-4.11-0.4-5.97-1.2c-1.86-0.8-3.49-1.9-4.88-3.29c-1.39-1.39-2.49-3.01-3.29-4.88
			c-0.8-1.86-1.2-3.85-1.2-5.97V4.45z"/>
		<path class="st1" d="M41.06,4.45c0-0.75,0.38-1.13,1.13-1.13h12.09c1.56,0,3.04,0.31,4.45,0.92c1.41,0.61,2.65,1.44,3.71,2.47
			c1.06,1.04,1.91,2.25,2.54,3.64c0.64,1.39,0.95,2.86,0.95,4.42s-0.32,3.03-0.95,4.42c-0.64,1.39-1.48,2.6-2.54,3.64
			c-1.06,1.04-2.3,1.86-3.71,2.47c-1.41,0.61-2.9,0.92-4.45,0.92H43.32v21c0,0.75-0.38,1.13-1.13,1.13c-0.75,0-1.13-0.38-1.13-1.13
			V4.45z M43.32,5.58v18.38h10.96c1.32,0,2.54-0.24,3.68-0.71c1.13-0.47,2.12-1.13,2.97-1.98c0.85-0.85,1.52-1.83,2.01-2.93
			c0.5-1.11,0.74-2.3,0.74-3.57c0-1.32-0.25-2.53-0.74-3.64c-0.49-1.11-1.17-2.07-2.01-2.9c-0.85-0.82-1.84-1.47-2.97-1.94
			c-1.13-0.47-2.36-0.71-3.68-0.71H43.32z"/>
		<path class="st1" d="M68.34,5.09c-0.19-0.24-0.25-0.51-0.18-0.81c0.07-0.31,0.22-0.55,0.46-0.74c0.28-0.19,0.58-0.25,0.88-0.18
			c0.31,0.07,0.55,0.22,0.74,0.46l13.29,20.01L96.83,3.82c0.19-0.24,0.44-0.39,0.74-0.46c0.31-0.07,0.6-0.01,0.88,0.18
			c0.24,0.19,0.39,0.44,0.46,0.74c0.07,0.31,0.01,0.58-0.18,0.81l-14.07,21v21.14c0,0.75-0.38,1.13-1.13,1.13
			c-0.75,0-1.13-0.38-1.13-1.13V26.08L68.34,5.09z"/>
		<path class="st1" d="M119.95,3.32c3.11,0,6.03,0.59,8.77,1.77c2.73,1.18,5.12,2.79,7.17,4.84c2.05,2.05,3.66,4.44,4.84,7.18
			c1.18,2.73,1.77,5.66,1.77,8.77c0,3.11-0.59,6.03-1.77,8.77c-1.18,2.73-2.79,5.11-4.84,7.14c-2.05,2.03-4.44,3.63-7.17,4.81
			c-2.73,1.18-5.66,1.77-8.77,1.77c-3.11,0-6.03-0.59-8.76-1.77c-2.73-1.18-5.11-2.78-7.14-4.81c-2.03-2.03-3.63-4.41-4.81-7.14
			c-1.18-2.73-1.77-5.66-1.77-8.77c0-3.11,0.59-6.03,1.77-8.77c1.18-2.73,2.78-5.12,4.81-7.18c2.03-2.05,4.41-3.66,7.14-4.84
			C113.92,3.91,116.84,3.32,119.95,3.32z M119.95,5.58c-2.83,0-5.47,0.53-7.92,1.59c-2.45,1.06-4.58,2.51-6.4,4.35
			c-1.81,1.84-3.25,3.99-4.31,6.47c-1.06,2.47-1.59,5.1-1.59,7.88c0,2.83,0.53,5.47,1.59,7.92c1.06,2.45,2.5,4.58,4.31,6.4
			c1.81,1.81,3.95,3.25,6.4,4.31c2.45,1.06,5.09,1.59,7.92,1.59c2.78,0,5.41-0.53,7.88-1.59c2.47-1.06,4.63-2.5,6.47-4.31
			c1.84-1.81,3.29-3.95,4.35-6.4c1.06-2.45,1.59-5.09,1.59-7.92c0-2.78-0.53-5.41-1.59-7.88c-1.06-2.47-2.51-4.63-4.35-6.47
			c-1.84-1.84-3.99-3.29-6.47-4.35C125.36,6.11,122.73,5.58,119.95,5.58z"/>
		<path class="st1" d="M148.44,4.45c0-0.75,0.38-1.13,1.13-1.13c0.75,0,1.13,0.38,1.13,1.13v28.49c0,1.79,0.34,3.48,1.02,5.05
			c0.68,1.58,1.6,2.97,2.76,4.17c1.15,1.2,2.53,2.16,4.13,2.86s3.32,1.06,5.16,1.06c1.79,0,3.49-0.34,5.09-1.03
			c1.6-0.68,3-1.63,4.21-2.83c1.2-1.2,2.16-2.59,2.86-4.17c0.71-1.58,1.06-3.26,1.06-5.05V4.31c0-0.75,0.38-1.13,1.13-1.13
			c0.75,0,1.13,0.38,1.13,1.13v28.7c0,2.12-0.41,4.11-1.24,5.97c-0.82,1.86-1.94,3.49-3.36,4.88c-1.41,1.39-3.05,2.49-4.91,3.29
			c-1.86,0.8-3.85,1.2-5.97,1.2c-2.12,0-4.11-0.4-5.97-1.2c-1.86-0.8-3.49-1.9-4.88-3.29c-1.39-1.39-2.49-3.01-3.29-4.88
			c-0.8-1.86-1.2-3.85-1.2-5.97V4.45z"/>
		<path class="st1" d="M207.61,5.58c-2.83,0-5.47,0.53-7.92,1.59c-2.45,1.06-4.58,2.51-6.4,4.35c-1.81,1.84-3.25,3.99-4.31,6.47
			c-1.06,2.47-1.59,5.1-1.59,7.88c0,2.83,0.53,5.47,1.59,7.92c1.06,2.45,2.5,4.58,4.31,6.4c1.81,1.81,3.95,3.25,6.4,4.31
			c2.45,1.06,5.09,1.59,7.92,1.59c2.07,0,4.08-0.29,6.01-0.88c1.93-0.59,3.71-1.43,5.34-2.51c1.63-1.08,3.08-2.39,4.35-3.92
			c1.27-1.53,2.29-3.22,3.04-5.05c0.33-0.85,0.61-1.7,0.85-2.55h-12.16c-0.76,0-1.13-0.38-1.13-1.13c0-0.75,0.38-1.13,1.13-1.13
			h13.64c0.33,0,0.61,0.13,0.85,0.39c0.24,0.26,0.31,0.58,0.21,0.95c-0.33,1.6-0.78,3.06-1.34,4.38c-0.85,2.03-1.98,3.88-3.39,5.55
			c-1.41,1.67-3.02,3.11-4.81,4.31c-1.79,1.2-3.76,2.15-5.9,2.83c-2.15,0.68-4.37,1.02-6.68,1.02c-3.11,0-6.03-0.59-8.77-1.77
			c-2.73-1.18-5.11-2.78-7.14-4.81c-2.03-2.03-3.63-4.41-4.81-7.14c-1.18-2.73-1.77-5.66-1.77-8.77c0-2.31,0.34-4.53,1.03-6.68
			c0.68-2.14,1.63-4.11,2.83-5.9c1.2-1.79,2.64-3.39,4.31-4.81c1.67-1.41,3.52-2.54,5.55-3.39c2.64-1.18,5.49-1.77,8.55-1.77
			c3.06,0,6.02,0.58,8.87,1.73c2.85,1.16,5.27,2.79,7.25,4.91l0.49,0.5c0.52,0.52,0.52,1.04,0,1.56c-0.24,0.24-0.49,0.35-0.78,0.35
			c-0.28,0-0.54-0.12-0.78-0.35l-0.49-0.49c-1.84-1.88-4.01-3.35-6.5-4.38C212.95,6.1,210.34,5.58,207.61,5.58z"/>
		<path class="st1" d="M255.54,3.32c3.11,0,6.03,0.59,8.77,1.77c2.73,1.18,5.12,2.79,7.17,4.84c2.05,2.05,3.66,4.44,4.84,7.18
			c1.18,2.73,1.77,5.66,1.77,8.77c0,3.11-0.59,6.03-1.77,8.77c-1.18,2.73-2.79,5.11-4.84,7.14c-2.05,2.03-4.44,3.63-7.17,4.81
			c-2.73,1.18-5.66,1.77-8.77,1.77s-6.03-0.59-8.76-1.77c-2.73-1.18-5.11-2.78-7.14-4.81c-2.03-2.03-3.63-4.41-4.81-7.14
			c-1.18-2.73-1.77-5.66-1.77-8.77c0-3.11,0.59-6.03,1.77-8.77c1.18-2.73,2.78-5.12,4.81-7.18c2.03-2.05,4.41-3.66,7.14-4.84
			C249.5,3.91,252.42,3.32,255.54,3.32z M255.54,5.58c-2.83,0-5.47,0.53-7.92,1.59c-2.45,1.06-4.58,2.51-6.4,4.35
			c-1.81,1.84-3.25,3.99-4.31,6.47c-1.06,2.47-1.59,5.1-1.59,7.88c0,2.83,0.53,5.47,1.59,7.92c1.06,2.45,2.5,4.58,4.31,6.4
			c1.81,1.81,3.95,3.25,6.4,4.31c2.45,1.06,5.09,1.59,7.92,1.59c2.78,0,5.41-0.53,7.88-1.59c2.47-1.06,4.63-2.5,6.47-4.31
			c1.84-1.81,3.29-3.95,4.35-6.4c1.06-2.45,1.59-5.09,1.59-7.92c0-2.78-0.53-5.41-1.59-7.88c-1.06-2.47-2.51-4.63-4.35-6.47
			c-1.84-1.84-3.99-3.29-6.47-4.35C260.94,6.11,258.32,5.58,255.54,5.58z"/>
	</g>
	<g>
		<g>
			<path class="st1" d="M119.95,30.99c-0.05-0.05-0.1-0.1-0.15-0.14c-0.55-0.4-1.12-0.78-1.65-1.2c-0.96-0.76-1.27-2.08-0.78-3.2
				c0.08-0.17,0.14-0.35,0.25-0.51c0.31-0.45,0.24-0.95,0.23-1.44c-0.48-0.13-0.88,0.03-1.1,0.46c-0.14,0.27-0.27,0.55-0.41,0.81
				c-0.03,0.06-0.11,0.12-0.17,0.12c-0.38,0.01-0.75,0.01-1.15,0.01c-0.01-0.08-0.01-0.15-0.01-0.22c0-1.21,0-2.42,0-3.63
				c0-1.13,0.57-1.98,1.61-2.4c0.04-0.02,0.08-0.03,0.12-0.04c0.41-0.13,0.41-0.13,0.41-0.57c0-1.3-0.01-2.61,0-3.91
				c0.01-1.8,0.65-3.35,1.92-4.63c0.03-0.03,0.05-0.06,0.08-0.07c0.45-0.25,0.58-0.64,0.51-1.12c-0.03-0.18,0-0.38,0-0.56
				c0.23,0,0.46,0,0.7,0c0,0.28,0.02,0.55-0.01,0.82c-0.03,0.31,0.08,0.51,0.32,0.71c0.73,0.6,1.26,1.35,1.64,2.21
				c0.38,0.85,0.55,1.75,0.55,2.68c0,1.35,0.01,2.69,0,4.04c0,0.23,0.05,0.35,0.29,0.37c0.09,0.01,0.18,0.05,0.27,0.08
				c1.05,0.45,1.57,1.26,1.59,2.39c0.02,1.22,0,2.43,0,3.65c0,0.06-0.01,0.13-0.01,0.2c-0.4,0-0.79,0-1.18-0.01
				c-0.05,0-0.12-0.07-0.15-0.12c-0.15-0.27-0.28-0.56-0.42-0.83c-0.22-0.41-0.63-0.57-1.09-0.44c-0.04,0.52-0.07,1.04,0.26,1.5
				c0.04,0.06,0.07,0.13,0.1,0.19c0.68,1.37,0.33,2.76-0.92,3.66c-0.53,0.38-1.06,0.76-1.58,1.14
				C119.98,30.99,119.97,30.99,119.95,30.99z M117.84,18.03c-0.01,0.08-0.01,0.13-0.01,0.18c0,1.78,0,3.56,0,5.35
				c0,0.18,0.07,0.21,0.23,0.21c1.29,0,2.58,0,3.87,0c0.06,0,0.13-0.01,0.2-0.01c0-1.92,0-3.81,0-5.72
				c-0.12-0.01-0.22-0.01-0.33-0.02c0-0.23,0-0.45,0-0.68c0.12-0.01,0.22-0.02,0.34-0.03c0-0.72-0.01-1.42,0-2.12
				c0.01-1.34-0.38-2.55-1.2-3.62c-0.28-0.36-0.59-0.69-1.02-0.99c-0.26,0.29-0.53,0.55-0.77,0.84c-0.77,0.94-1.24,2.01-1.3,3.22
				c-0.04,0.79-0.02,1.58-0.03,2.37c0,0.32,0,0.32,0.31,0.32c0.9,0,1.8,0,2.69,0c0.07,0,0.2,0.05,0.2,0.09
				c0.02,0.2,0.01,0.4,0.01,0.61C119.96,18.03,118.91,18.03,117.84,18.03z M121.45,25.88c-0.02,0.06-0.03,0.07-0.03,0.09
				c0,0.12,0,0.25,0,0.37c-0.02,1.02-0.44,1.83-1.29,2.4c-0.06,0.04-0.18,0.05-0.24,0.02c-0.7-0.45-1.15-1.08-1.27-1.91
				c-0.05-0.31-0.05-0.62-0.07-0.99c-0.08,0.06-0.15,0.09-0.18,0.15c-0.14,0.26-0.28,0.53-0.39,0.8c-0.32,0.8-0.08,1.75,0.59,2.28
				c0.43,0.34,0.88,0.64,1.32,0.95c0.05,0.03,0.16,0.03,0.2,0c0.45-0.31,0.9-0.62,1.32-0.96c0.46-0.37,0.68-0.86,0.72-1.45
				c0.04-0.63-0.28-1.14-0.54-1.67C121.57,25.93,121.51,25.91,121.45,25.88z M122.87,20.23c-0.01,0.03-0.02,0.05-0.02,0.07
				c0,1.12,0,2.24,0,3.36c0,0.06,0.08,0.16,0.15,0.19c0.34,0.13,0.6,0.34,0.78,0.65c0.11,0.19,0.2,0.39,0.3,0.57
				c0.03,0.05,0.09,0.07,0.14,0.1c0.02-0.05,0.06-0.1,0.06-0.15c0-0.42,0.01-0.84,0-1.26c-0.01-0.69,0.01-1.37-0.03-2.06
				C124.21,21.01,123.58,20.35,122.87,20.23z M115.71,25.24c0.09-0.07,0.15-0.1,0.18-0.16c0.07-0.12,0.13-0.24,0.19-0.37
				c0.2-0.41,0.48-0.72,0.93-0.86c0.13-0.04,0.13-0.13,0.13-0.23c0-1.07,0-2.14,0-3.22c0-0.06-0.01-0.11-0.01-0.19
				c-0.13,0.04-0.25,0.07-0.36,0.12c-0.7,0.33-1.06,0.9-1.07,1.67c-0.01,1.01,0,2.01,0,3.02C115.69,25.08,115.7,25.12,115.71,25.24z
				 M119.27,25.91c-0.07,0.8,0.08,1.5,0.71,2.05c0.64-0.55,0.78-1.26,0.7-2.05C120.22,25.91,119.75,25.91,119.27,25.91z
				 M118.56,25.17c0.97,0,1.91,0,2.85,0c0-0.24,0-0.46,0-0.7c-0.96,0-1.9,0-2.85,0C118.56,24.72,118.56,24.94,118.56,25.17z"/>
			<path class="st1" d="M119.99,13.04c0.98,0,1.79,0.82,1.78,1.79c-0.01,0.97-0.82,1.77-1.78,1.77c-0.98,0-1.78-0.81-1.77-1.79
				C118.22,13.83,119.02,13.04,119.99,13.04z M118.91,14.8c-0.01,0.58,0.48,1.08,1.07,1.09c0.58,0.01,1.08-0.48,1.09-1.07
				c0.01-0.58-0.48-1.08-1.07-1.09C119.42,13.73,118.92,14.22,118.91,14.8z"/>
			<path class="st1" d="M121.76,22.31c-0.23,0-0.44,0-0.67,0c0-0.23,0-0.45,0-0.68c0.23,0,0.44,0,0.67,0
				C121.76,21.85,121.76,22.07,121.76,22.31z"/>
			<path class="st1" d="M120.67,23.38c-0.23,0-0.43,0-0.66,0c0-0.22,0-0.44,0-0.68c0.21,0,0.43,0,0.66,0
				C120.67,22.92,120.67,23.14,120.67,23.38z"/>
			<path class="st1" d="M121.09,22.7c0.23,0,0.45,0,0.67,0c0,0.22,0,0.44,0,0.67c-0.22,0-0.44,0-0.67,0
				C121.09,23.15,121.09,22.94,121.09,22.7z"/>
			<circle class="st1" cx="108.66" cy="40.69" r="3.71"/>
			<circle class="st1" cx="112.37" cy="36.99" r="3.71"/>
			<circle class="st1" cx="130.49" cy="40.69" r="3.71"/>
			<circle class="st1" cx="126.79" cy="36.99" r="3.71"/>
		</g>
	</g>
</g>
<g id="Layer_2" class="st2">
	<g class="st3">
		<path class="st4" d="M-676.19-116.3c66.14,0,132.28,0,198.42,0c-0.02,3.47-0.46,6.99,0.02,10.39c1.26,9-1.12,16.12-9.41,20.69
			c-0.57,0.31-1.01,0.86-1.48,1.33C-512-60.32-523.86-31.94-524.02,1.23c-0.12,24-0.02,48-0.02,72c0,8.15,0,8.14-7.57,10.46
			c-0.76,0.23-1.51,0.52-2.24,0.82c-18.99,7.88-29.45,23.41-29.54,44.23c-0.1,22.27-0.03,44.54-0.01,66.8
			c0,1.27,0.15,2.55,0.25,4.05c7.3,0,14.22,0.1,21.13-0.1c1.1-0.03,2.61-1.18,3.17-2.22c2.66-4.91,4.97-10.02,7.58-14.96
			c4.07-7.73,11.5-10.78,20.31-8.37c0.23,9.07,1.51,18.25-4.24,26.52c-1.95,2.81-3.17,6.15-4.56,9.31
			c-9.03,20.6-3.3,44.86,14.4,58.83c9.82,7.76,20.25,14.74,30.38,22.11c1.03,0.75,1.87,1.74,2.8,2.62c-105.34,0-210.68,0-316.03,0
			c0-136.55,0-273.09,0-409.64c33.34,0,66.67,0,100.01,0c-1.02,0.27-2.02,0.66-3.06,0.8c-34.05,4.63-60.01,31.02-62.54,65.24
			c-1.34,18.17-0.57,36.5-0.59,54.76c0,2.84-0.75,4.48-3.31,6.01C-776.8,22-786.79,39.1-787.21,61.29
			c-0.43,22.39-0.47,44.8,0.06,67.19c0.34,14.44,7.18,25.92,20.09,32.77c5.73,3.04,12.34,4.44,19.26,6.82c0,40.51,0,81.9,0,123.38
			c44,0,87.53,0,131.47,0c0-41.64,0-83.05,0-124.54c1.57-0.22,2.74-0.39,3.93-0.55c20.81-2.66,35.29-18.78,35.39-39.64
			c0.1-21.46,0.18-42.93-0.02-64.4c-0.21-22.74-10.14-40.14-29.66-51.88c-2.39-1.44-3.23-2.93-3.21-5.66
			c0.11-16.4,0.21-32.8,0.01-49.2c-0.38-30.58-18.99-56.91-47.75-67.3C-663.61-113.87-670-114.8-676.19-116.3z"/>
		<path d="M-676.19-116.3c6.19,1.5,12.58,2.43,18.53,4.58c28.76,10.39,47.38,36.72,47.75,67.3c0.2,16.4,0.1,32.8-0.01,49.2
			c-0.02,2.73,0.82,4.22,3.21,5.66c19.51,11.74,29.45,29.15,29.66,51.88c0.2,21.46,0.12,42.93,0.02,64.4
			c-0.1,20.86-14.58,36.98-35.39,39.64c-1.18,0.15-2.36,0.33-3.93,0.55c0,41.49,0,82.9,0,124.54c-43.93,0-87.46,0-131.47,0
			c0-41.48,0-82.87,0-123.38c-6.92-2.39-13.52-3.78-19.26-6.82c-12.91-6.85-19.75-18.33-20.09-32.77
			c-0.53-22.39-0.49-44.8-0.06-67.19c0.43-22.18,10.41-39.29,29.52-50.76c2.55-1.53,3.3-3.17,3.31-6.01
			c0.02-18.26-0.75-36.59,0.59-54.76c2.53-34.22,28.49-60.62,62.54-65.24c1.04-0.14,2.04-0.53,3.06-0.8
			C-684.19-116.3-680.19-116.3-676.19-116.3z M-589.77,114.02c0-1.8,0-3.12,0-4.44c-0.06-17.2,0.72-34.45-0.38-51.58
			c-1.54-23.97-19.91-41.86-43.97-42.44c-31.98-0.77-64-0.77-95.98,0c-24.16,0.58-42.43,18.34-43.91,42.41
			c-1.12,18.2-0.34,36.51-0.39,54.77c0,0.36,0.26,0.73,0.43,1.19c8.61,0,17.19,0,26.29,0c0-21.92,0-43.55,0-65.23
			c4.47,0,8.42,0,12.9,0c0,30.66,0,61.09,0,91.66c4.6,0,8.67,0,12.94,0c0.2-2.11,0.38-4.03,0.57-5.99c4.3,0,8.34,0,12.52,0
			c0.17,2.12,0.32,3.94,0.49,5.97c6.5,0,12.83,0,19.31,0c0.23-2.12,0.43-4.05,0.64-5.96c4.32,0,8.38,0,12.52,0
			c0.15,2.13,0.29,3.95,0.43,5.97c6.53,0,12.86,0,19.41,0c0.24-2.07,0.45-4,0.68-5.96c4.28,0,8.32,0,12.38,0
			c0.15,2.15,0.27,3.97,0.41,5.9c4.41,0,8.58,0,13.17,0c0-15.45,0-30.63,0-45.8c0-15.25,0-30.5,0-45.75c4.74,0,8.67,0,13.08,0
			c0,21.91,0,43.55,0,65.27C-607.27,114.02-598.79,114.02-589.77,114.02z M-629.56,153.63c-4.57,0-8.65,0-12.88,0
			c-0.2,2.15-0.38,4.08-0.56,5.98c-4.3,0-8.32,0-11.19,0c-1.49-2.58-2.39-5.84-3.6-5.96c-5.77-0.55-11.63-0.25-17.57-0.25
			c-0.17,2.34-0.31,4.16-0.47,6.29c-4.22,0-8.25,0-12.62,0c-0.08-1.49,0.04-2.84-0.29-4.07c-0.22-0.82-1.07-2.08-1.67-2.09
			c-5.93-0.16-11.86-0.09-17.85-0.09c-0.22,2.46-0.38,4.28-0.58,6.58c-2.05,0-3.88,0-5.71,0c-6.45,0-6.45,0-7.45-6.33
			c-4.13,0-8.31,0-12.53,0c0,17.66,0,35.03,0,52.69c8.7,0,17.06,0,26,0c0,3.04-0.23,5.82,0.06,8.55c0.37,3.53-0.87,4.63-4.43,4.5
			c-7.15-0.27-14.32-0.08-21.6-0.08c0,11.28,0,22.09,0,32.92c15.37,0,30.37,0,45.61,0c0-10.98,0-21.7,0-32.61
			c-2.15-0.23-4.08-0.43-6.07-0.64c0-4.28,0-8.33,0-12.5c2.19-0.16,4.11-0.3,6.49-0.47c0-8.8,0-17.26,0-25.69c4.54,0,8.58,0,13.06,0
			c0,8.81,0,17.27,0,26.17c8.89,0,17.34,0,26.12,0c0,3.09-0.22,5.76,0.05,8.38c0.37,3.5-0.81,4.66-4.4,4.52
			c-7.15-0.28-14.32-0.08-21.63-0.08c0,11.27,0,22.08,0,32.97c15.36,0,30.37,0,45.55,0c0-11.03,0-21.84,0-32.71
			c-2.28-0.22-4.19-0.41-6.04-0.59c0-4.42,0-8.37,0-12.49c2.16-0.16,4.1-0.3,6.18-0.46C-629.56,188.54-629.56,171.26-629.56,153.63z
			 M-720.3-52.55c-4.6,15.06,3.43,34.17,17.41,42.26c16.89,9.77,37.05,7.19,49.35-6.31c13.03-14.3,14.68-34.44,4.05-49.63
			c-9.4-13.45-28.41-20.79-41.06-15.69c10.7,5.39,16.45,13.6,14.3,25.79c-1.63,9.22-7.33,15.48-16.37,17.71
			C-705.43-35.26-714.41-40.9-720.3-52.55z M-708.92,2.73c0.03-0.42,0.06-0.85,0.09-1.27c-29.42-18.46-32.37-54.58-15.03-77.2
			c17.39-22.68,50.16-27.5,73.11-10.11c14.85,11.26,21.94,26.49,20.88,45.17c-1.06,18.55-10.48,32.3-25.91,42.41
			c0.18,0.37,0.35,0.74,0.53,1.1c10.72,0,21.43,0,32.37,0c0.01-0.05,0.18-0.57,0.18-1.08c0.01-15.47,0.49-30.95-0.11-46.39
			c-1.4-36.13-29.73-61.04-65.58-58.2c-26.87,2.13-51.16,26.02-52.58,52.8c-0.91,17.15-0.42,34.38-0.54,51.58
			c0,0.63,0.21,1.26,0.2,1.2C-730.31,2.73-719.61,2.73-708.92,2.73z M-629.61,278.65c0-4.57,0-8.76,0-13.05c-15.39,0-30.5,0-45.72,0
			c0,4.46,0,8.65,0,13.05C-660.05,278.65-645.04,278.65-629.61,278.65z M-734.61,278.6c15.28,0,30.36,0,45.7,0
			c0-4.41,0-8.59,0-13.02c-15.29,0-30.37,0-45.7,0C-734.61,269.97-734.61,274.15-734.61,278.6z M-616.35,127.29
			c0,4.64,0,8.89,0,13.13c0,4.32,0,8.64,0,12.93c14.79,0.19,27.42-12.69,25.98-26.06C-598.81,127.29-607.26,127.29-616.35,127.29z
			 M-747.92,153.09c0-8.01,0.07-16.07-0.12-24.13c-0.02-0.65-1.75-1.77-2.72-1.8c-5.17-0.18-10.36-0.09-15.53-0.09
			c-2.58,0-5.15,0-7.7,0C-774.11,142.08-761.51,154.53-747.92,153.09z M-698.77-70.23c-5.4,0.09-9.76,4.62-9.68,10.07
			c0.08,5.41,4.61,9.77,10.05,9.69c5.39-0.08,9.76-4.63,9.68-10.06C-688.79-65.93-693.34-70.32-698.77-70.23z"/>
		<path class="st4" d="M-471.37,293.34c9.71-7.01,19.41-14.05,29.15-21.02c23-16.46,29.42-42,16.87-67.27
			c-0.59-1.19-1.07-2.47-1.83-3.55c-5.98-8.46-5.43-18.01-4.73-27.59c8.45-2.4,15.92,0.52,19.97,8.02
			c2.72,5.03,5.11,10.24,7.8,15.29c0.53,0.99,1.76,2.24,2.69,2.27c7.16,0.19,14.34,0.1,21.76,0.1c0.1-1.46,0.24-2.61,0.24-3.76
			c0.01-22.39,0.24-44.78-0.06-67.16c-0.28-20.79-9.96-35.69-29.25-44.01c-1.58-0.68-3.25-1.43-4.92-1.54
			c-4.48-0.3-5.34-2.59-5.3-6.77c0.21-24.78,0.13-49.57,0.09-74.36c-0.03-17.11-3.13-33.58-10.12-49.28
			c-7.05-15.82-16.81-29.68-30.18-40.68c-4.48-3.68-6.53-7.39-5.94-13.14c0.51-5.01,0.15-10.12,0.17-15.18c28.78,0,57.57,0,86.38,0
			c0,136.55,0,273.09,0,409.64C-409.54,293.34-440.46,293.34-471.37,293.34z"/>
		<path class="st1" d="M-589.77,114.02c-9.02,0-17.5,0-26.47,0c0-21.73,0-43.37,0-65.27c-4.41,0-8.34,0-13.08,0
			c0,15.25,0,30.5,0,45.75c0,15.18,0,30.35,0,45.8c-4.59,0-8.76,0-13.17,0c-0.13-1.93-0.26-3.75-0.41-5.9c-4.06,0-8.09,0-12.38,0
			c-0.22,1.96-0.44,3.88-0.68,5.96c-6.55,0-12.88,0-19.41,0c-0.15-2.02-0.28-3.84-0.43-5.97c-4.15,0-8.2,0-12.52,0
			c-0.2,1.91-0.41,3.84-0.64,5.96c-6.48,0-12.81,0-19.31,0c-0.17-2.04-0.32-3.86-0.49-5.97c-4.18,0-8.22,0-12.52,0
			c-0.19,1.96-0.37,3.89-0.57,5.99c-4.26,0-8.33,0-12.94,0c0-30.57,0-61.01,0-91.66c-4.48,0-8.43,0-12.9,0c0,21.67,0,43.31,0,65.23
			c-9.1,0-17.68,0-26.29,0c-0.17-0.46-0.43-0.82-0.43-1.19c0.05-18.26-0.73-36.58,0.39-54.77c1.48-24.07,19.75-41.83,43.91-42.41
			c31.98-0.77,64-0.76,95.98,0c24.06,0.58,42.43,18.47,43.97,42.44c1.1,17.13,0.32,34.38,0.38,51.58
			C-589.77,110.9-589.77,112.22-589.77,114.02z M-727.76,28.76c0,28.56,0,56.83,0,84.96c30.65,0,60.97,0,91.27,0
			c0-28.47,0-56.64,0-84.96C-666.99,28.76-697.21,28.76-727.76,28.76z"/>
		<path class="st1" d="M-629.56,153.63c0,17.63,0,34.9,0,52.45c-2.08,0.15-4.01,0.3-6.18,0.46c0,4.12,0,8.07,0,12.49
			c1.84,0.18,3.76,0.37,6.04,0.59c0,10.87,0,21.68,0,32.71c-15.19,0-30.2,0-45.55,0c0-10.9,0-21.71,0-32.97
			c7.3,0,14.47-0.19,21.63,0.08c3.6,0.14,4.77-1.03,4.4-4.52c-0.28-2.62-0.05-5.29-0.05-8.38c-8.78,0-17.23,0-26.12,0
			c0-8.9,0-17.36,0-26.17c-4.47,0-8.52,0-13.06,0c0,8.43,0,16.89,0,25.69c-2.38,0.17-4.3,0.31-6.49,0.47c0,4.17,0,8.22,0,12.5
			c1.98,0.21,3.92,0.42,6.07,0.64c0,10.91,0,21.63,0,32.61c-15.24,0-30.24,0-45.61,0c0-10.83,0-21.64,0-32.92
			c7.28,0,14.45-0.19,21.6,0.08c3.56,0.13,4.8-0.97,4.43-4.5c-0.28-2.73-0.06-5.51-0.06-8.55c-8.95,0-17.31,0-26,0
			c0-17.67,0-35.03,0-52.69c4.22,0,8.39,0,12.53,0c1,6.33,1,6.33,7.45,6.33c1.83,0,3.66,0,5.71,0c0.2-2.31,0.36-4.13,0.58-6.58
			c5.99,0,11.92-0.06,17.85,0.09c0.6,0.02,1.45,1.27,1.67,2.09c0.33,1.23,0.21,2.59,0.29,4.07c4.37,0,8.4,0,12.62,0
			c0.16-2.12,0.29-3.95,0.47-6.29c5.94,0,11.79-0.3,17.57,0.25c1.21,0.11,2.11,3.38,3.6,5.96c2.87,0,6.89,0,11.19,0
			c0.18-1.9,0.36-3.82,0.56-5.98C-638.2,153.63-634.12,153.63-629.56,153.63z"/>
		<path class="st1" d="M-720.3-52.55c5.89,11.65,14.87,17.29,27.68,14.13c9.04-2.24,14.74-8.49,16.37-17.71
			c2.15-12.19-3.6-20.4-14.3-25.79c12.65-5.1,31.66,2.24,41.06,15.69c10.62,15.19,8.98,35.33-4.05,49.63
			c-12.3,13.5-32.47,16.08-49.35,6.31C-716.87-18.38-724.91-37.49-720.3-52.55z"/>
		<path class="st1" d="M-708.92,2.73c-10.69,0-21.39,0-32.39,0c0.01,0.06-0.21-0.58-0.2-1.2c0.12-17.2-0.37-34.42,0.54-51.58
			c1.42-26.78,25.71-50.66,52.58-52.8c35.85-2.84,64.18,22.07,65.58,58.2c0.6,15.44,0.12,30.93,0.11,46.39
			c0,0.51-0.17,1.03-0.18,1.08c-10.93,0-21.65,0-32.37,0c-0.18-0.37-0.35-0.74-0.53-1.1c15.42-10.11,24.85-23.85,25.91-42.41
			c1.06-18.68-6.02-33.91-20.88-45.17c-22.95-17.39-55.71-12.57-73.11,10.11C-741.2-53.12-738.25-17-708.83,1.46
			C-708.86,1.88-708.89,2.3-708.92,2.73z"/>
		<path class="st1" d="M-629.61,278.65c-15.44,0-30.44,0-45.72,0c0-4.4,0-8.59,0-13.05c15.22,0,30.32,0,45.72,0
			C-629.61,269.89-629.61,274.08-629.61,278.65z"/>
		<path class="st1" d="M-734.61,278.6c0-4.45,0-8.63,0-13.02c15.33,0,30.41,0,45.7,0c0,4.43,0,8.61,0,13.02
			C-704.25,278.6-719.32,278.6-734.61,278.6z"/>
		<path class="st1" d="M-616.35,127.29c9.09,0,17.55,0,25.98,0c1.45,13.37-11.18,26.26-25.98,26.06c0-4.29,0-8.61,0-12.93
			C-616.35,136.18-616.35,131.93-616.35,127.29z"/>
		<path class="st1" d="M-747.92,153.09c-13.59,1.44-26.19-11.01-26.08-26.02c2.55,0,5.13,0,7.7,0c5.18,0,10.36-0.09,15.53,0.09
			c0.97,0.03,2.71,1.15,2.72,1.8C-747.85,137.02-747.92,145.08-747.92,153.09z"/>
		<path class="st4" d="M-698.77-70.23c5.42-0.09,9.97,4.3,10.05,9.7c0.08,5.44-4.29,9.99-9.68,10.06
			c-5.44,0.08-9.97-4.29-10.05-9.69C-708.53-65.61-704.17-70.14-698.77-70.23z"/>
		<path class="st4" d="M-510.93,54.78c19.68,0,38.97,0,58.96,0c0-3.93,0.2-7.61-0.17-11.22c-0.07-0.68-2.4-1.61-3.7-1.62
			c-16.53-0.11-33.06-0.07-49.59-0.08c-5.74,0-5.79,0-5.73-5.88c0.14-14.52-0.12-29.07,0.59-43.57c1.1-22.41,9.58-42.13,23.84-59.34
			c4.41-5.32,9.29-10.24,14.09-15.49c7.84,5.67,13.62,11.67,18.72,18.29c15.1,19.6,22.25,41.86,22.03,66.57
			c-0.11,12.91-0.02,25.83-0.02,39.07c-2.21,0.22-4.15,0.42-6.32,0.64c0,4.12,0,8.18,0,12.46c2,0.1,3.83,0.2,5.98,0.31
			c0,35.01,0,69.97,0,105.21c-1.26,0.09-2.43,0.25-3.59,0.25c-23.73,0.01-47.46-0.03-71.18,0.06c-2.95,0.01-4.23-0.58-4.22-3.93
			c0.12-32.79,0.07-65.58,0.08-98.38C-511.16,57.21-511.04,56.29-510.93,54.78z M-471.44-37.07c-17.93-0.02-32.58,14.52-32.71,32.46
			c-0.13,18.01,14.66,32.95,32.66,32.99c17.7,0.04,32.55-14.7,32.79-32.54C-438.47-22.01-453.44-37.06-471.44-37.07z
			 M-438.95,133.52c0-4.4,0-8.44,0-12.57c-4.21,0-8.13,0-12.3,0c0,4.26,0,8.29,0,12.57C-447.09,133.52-443.16,133.52-438.95,133.52z
			 M-458.87,153.25c0-4.44,0-8.45,0-12.42c-4.27,0-8.19,0-12.13,0c0,4.29,0,8.31,0,12.42
			C-466.85,153.25-463.02,153.25-458.87,153.25z M-451.24,140.77c0,4.34,0,8.26,0,12.3c4.29,0,8.31,0,12.35,0c0-4.25,0-8.18,0-12.3
			C-443.04,140.77-446.97,140.77-451.24,140.77z"/>
		<path class="st4" d="M-444.58,199.22c1.06,0.64,2.25,0.93,2.61,1.64c4.84,9.73,10.81,19.05,10,30.7
			c-0.75,10.83-4.9,19.97-13.32,26.71c-7.8,6.23-16.09,11.85-24.29,17.57c-0.87,0.6-2.88,0.62-3.73,0.02
			c-8.2-5.72-16.49-11.34-24.31-17.54c-12.34-9.78-16.75-27.26-10.85-41.96c2.03-5.05,4.61-9.89,7.11-14.74
			c0.52-1,1.84-1.59,3.25-2.75c0.44,6.74,0.41,12.5,1.27,18.13c2.35,15.24,10.55,26.81,23.42,35.07c1.02,0.65,3.32,0.4,4.42-0.33
			c15.76-10.44,23.45-25.31,23.79-44.11c0.04-2.27,0.04-4.53,0.08-6.8C-445.12,200.58-444.97,200.34-444.58,199.22z"/>
		<path class="st4" d="M-418.47,95.34c13.17,2.23,24.76,14.25,25.54,27.4c0.75,12.6,0.51,25.27,0.64,37.9
			c0.08,7.72,0.05,15.44-0.04,23.16c-0.01,0.9-0.69,1.8-1.06,2.7c-0.89-0.61-2.13-1.02-2.62-1.87c-1.99-3.45-3.62-7.11-5.61-10.56
			c-3.31-5.74-8.17-9.64-14.38-12.04c-1.22-0.47-2.75-2.26-2.76-3.45c-0.16-20.63-0.1-41.27-0.08-61.9
			C-418.84,96.31-418.64,95.93-418.47,95.34z"/>
		<path class="st4" d="M-550.28,187.45c-0.19-2.09-0.35-2.99-0.35-3.89c-0.01-18.53-0.19-37.06,0.05-55.59
			c0.19-14.19,6.76-24.65,19.71-30.79c2-0.95,4.21-1.45,6.59-2.25c0.09,1.49,0.21,2.54,0.21,3.59c0.01,19.73,0,39.46,0.02,59.19
			c0,1.92,0.07,3.58-2.36,4.31c-8.21,2.48-13.42,8.3-17.05,15.78c-1.1,2.28-2.14,4.6-3.45,6.75
			C-547.5,185.53-548.71,186.14-550.28,187.45z"/>
		<path class="st4" d="M-484.61,199.78c8.84,0,17.32,0,26.04,0c1.51,14.63-1.15,27.57-12.92,37.75
			C-483.11,227.44-485.81,214.55-484.61,199.78z"/>
		<path class="st4" d="M-497.72,186.29c0-4.36,0-8.45,0-12.8c17.54,0,34.91,0,52.52,0c0,4.26,0,8.33,0,12.8
			C-462.59,186.29-479.95,186.29-497.72,186.29z"/>
		<path d="M-727.76,28.76c30.55,0,60.78,0,91.27,0c0,28.32,0,56.5,0,84.96c-30.3,0-60.62,0-91.27,0
			C-727.76,85.59-727.76,57.31-727.76,28.76z M-688.34,94.2c0-15.35,0-30.34,0-45.77c13.08,0,25.95,0,39.01,0c0-2.47,0-4.49,0-6.63
			c-0.95-0.12-1.59-0.28-2.23-0.28c-20.13-0.02-40.26,0.04-60.4-0.08c-3.18-0.02-3.32,1.61-3.31,4c0.05,17.2,0.12,34.4-0.05,51.6
			c-0.03,3.52,1.31,4.16,4.43,4.14c19.2-0.11,38.4-0.05,57.6-0.07c1.3,0,2.59-0.15,3.92-0.23c0-2.39,0-4.41,0-6.67
			C-662.39,94.2-675.03,94.2-688.34,94.2z M-649.27,81.13c0-6.76,0-13.07,0-19.61c-8.81,0-17.36,0-26.02,0c0,6.67,0,13.09,0,19.83
			c7.72,0,15.14,0.01,22.56-0.01C-651.69,81.35-650.65,81.22-649.27,81.13z"/>
		<path class="st4" d="M-688.34,94.2c13.32,0,25.96,0,38.97,0c0,2.26,0,4.28,0,6.67c-1.33,0.08-2.62,0.23-3.92,0.23
			c-19.2,0.01-38.4-0.05-57.6,0.07c-3.13,0.02-4.47-0.61-4.43-4.14c0.17-17.2,0.1-34.4,0.05-51.6c-0.01-2.4,0.13-4.02,3.31-4
			c20.13,0.11,40.26,0.06,60.4,0.08c0.64,0,1.29,0.16,2.23,0.28c0,2.14,0,4.16,0,6.63c-13.06,0-25.93,0-39.01,0
			C-688.34,63.87-688.34,78.85-688.34,94.2z M-707.9,74.94c0,4.45,0,8.47,0,12.45c4.27,0,8.19,0,12.14,0c0-4.28,0-8.31,0-12.45
			C-699.91,74.94-703.74,74.94-707.9,74.94z M-695.65,55.2c-4.29,0-8.22,0-12.27,0c0,4.24,0,8.26,0,12.36c4.23,0,8.15,0,12.27,0
			C-695.65,63.39-695.65,59.46-695.65,55.2z"/>
		<path class="st4" d="M-649.27,81.13c-1.38,0.09-2.42,0.21-3.46,0.22c-7.42,0.02-14.84,0.01-22.56,0.01c0-6.74,0-13.16,0-19.83
			c8.66,0,17.21,0,26.02,0C-649.27,68.06-649.27,74.37-649.27,81.13z"/>
		<path class="st4" d="M-491.36-4.56c0.13-10.79,9.34-19.83,20.06-19.72c10.79,0.11,19.83,9.33,19.69,20.06
			c-0.14,10.85-9.32,19.87-20.03,19.7C-482.51,15.3-491.49,6.17-491.36-4.56z"/>
		<path d="M-707.9,74.94c4.16,0,7.99,0,12.14,0c0,4.14,0,8.17,0,12.45c-3.95,0-7.87,0-12.14,0C-707.9,83.41-707.9,79.39-707.9,74.94
			z"/>
		<path d="M-695.65,55.2c0,4.26,0,8.19,0,12.36c-4.12,0-8.04,0-12.27,0c0-4.1,0-8.11,0-12.36C-703.87,55.2-699.95,55.2-695.65,55.2z
			"/>
	</g>
</g>
</svg>
